<?xml version="1.0" encoding="UTF-8" standalone="no"?>
<!-- Created with Inkscape (http://www.inkscape.org/) -->

<svg
   width="41.204468mm"
   height="39.370022mm"
   viewBox="0 0 41.204468 39.370022"
   version="1.1"
   id="svg1"
   inkscape:export-filename="at.png"
   inkscape:export-xdpi="18.493139"
   inkscape:export-ydpi="18.493139"
   sodipodi:docname="at.svg"
   inkscape:version="1.3.2 (091e20e, 2023-11-25, custom)"
   xmlns:inkscape="http://www.inkscape.org/namespaces/inkscape"
   xmlns:sodipodi="http://sodipodi.sourceforge.net/DTD/sodipodi-0.dtd"
   xmlns="http://www.w3.org/2000/svg"
   xmlns:svg="http://www.w3.org/2000/svg">
  <sodipodi:namedview
     id="namedview1"
     pagecolor="#ffffff"
     bordercolor="#000000"
     borderopacity="0.25"
     inkscape:showpageshadow="2"
     inkscape:pageopacity="0.0"
     inkscape:pagecheckerboard="0"
     inkscape:deskcolor="#d1d1d1"
     inkscape:document-units="mm"
     inkscape:zoom="5.4637066"
     inkscape:cx="77.877534"
     inkscape:cy="74.400041"
     inkscape:window-width="1920"
     inkscape:window-height="1009"
     inkscape:window-x="-8"
     inkscape:window-y="-8"
     inkscape:window-maximized="1"
     inkscape:current-layer="layer1" />
  <defs
     id="defs1" />
  <g
     inkscape:label="Layer 1"
     inkscape:groupmode="layer"
     id="layer1"
     transform="translate(-84.690088,-98.398702)">
    <path
       d="m 97.954544,137.76873 q -5.432781,0 -8.678339,-1.69334 -3.175002,-1.76389 -4.586114,-4.30389 l 4.303892,-3.10445 q 2.610557,4.02167 9.242784,4.02167 5.644443,0 9.736673,-1.905 4.16278,-1.97556 6.77334,-5.00945 -1.19945,-1.55222 -2.75167,-3.10444 -1.55222,-1.62278 -3.81,-3.175 -2.11667,3.45722 -4.9389,5.29167 -2.82222,1.83444 -6.632222,1.83444 -4.727226,0 -7.337783,-2.68111 -2.540002,-2.68111 -2.540002,-7.26723 0,-4.09222 1.693335,-7.40834 1.693334,-3.38667 4.586114,-5.78556 2.89278,-2.46944 6.561671,-3.739444 3.668887,-1.340556 7.690557,-1.340556 4.79778,0 8.7489,1.83445 3.95111,1.83444 6.27945,5.36222 2.39889,3.52778 2.39889,8.67834 0,6.35 -3.66889,11.85334 2.11666,3.175 4.86833,6.27945 l -3.95111,2.96334 q -1.27,-1.34056 -2.32834,-2.68112 -0.98777,-1.34055 -1.83444,-2.61055 -3.52778,3.45722 -8.60778,5.57389 -5.08001,2.11667 -11.218346,2.11667 z m -5.856115,-21.16668 q 0,2.61055 1.199446,4.02166 1.27,1.41112 3.598335,1.41112 3.45722,0 6.06778,-3.45723 2.68112,-3.45722 5.08001,-11.07723 l 4.65667,1.62278 q -0.56445,1.76389 -1.19945,3.38667 -0.56444,1.55222 -1.19945,2.96334 2.3989,1.62277 4.09223,3.175 1.69333,1.48167 2.96334,2.96333 1.62277,-3.45722 1.62277,-7.19667 0,-5.50334 -3.31611,-8.39611 -3.24556,-2.96334 -8.67834,-2.96334 -4.09222,0 -7.478892,1.76389 -3.386669,1.69333 -5.432782,4.79778 -1.975557,3.03389 -1.975557,6.98501 z"
       id="text9"
       style="font-size:70.5556px;stroke-width:0.264583"
       aria-label="𖹣" />
  </g>
</svg>
