<?xml version="1.0" encoding="UTF-8" standalone="no"?>
<!-- Created with Inkscape (http://www.inkscape.org/) -->

<svg
   width="61.184952mm"
   height="64.078819mm"
   viewBox="0 0 61.184952 64.078819"
   version="1.1"
   id="svg1"
   inkscape:export-filename="bird.png"
   inkscape:export-xdpi="12.454042"
   inkscape:export-ydpi="12.454042"
   sodipodi:docname="bird.svg"
   inkscape:version="1.3.2 (091e20e, 2023-11-25, custom)"
   xmlns:inkscape="http://www.inkscape.org/namespaces/inkscape"
   xmlns:sodipodi="http://sodipodi.sourceforge.net/DTD/sodipodi-0.dtd"
   xmlns="http://www.w3.org/2000/svg"
   xmlns:svg="http://www.w3.org/2000/svg">
  <sodipodi:namedview
     id="namedview1"
     pagecolor="#ffffff"
     bordercolor="#000000"
     borderopacity="0.25"
     inkscape:showpageshadow="2"
     inkscape:pageopacity="0.0"
     inkscape:pagecheckerboard="0"
     inkscape:deskcolor="#d1d1d1"
     inkscape:document-units="mm"
     inkscape:zoom="3.356901"
     inkscape:cx="115.73174"
     inkscape:cy="121.09383"
     inkscape:window-width="1920"
     inkscape:window-height="1009"
     inkscape:window-x="-8"
     inkscape:window-y="-8"
     inkscape:window-maximized="1"
     inkscape:current-layer="layer1" />
  <defs
     id="defs1" />
  <g
     inkscape:label="Layer 1"
     inkscape:groupmode="layer"
     id="layer1"
     transform="translate(-87.936564,-80.140676)">
    <path
       d="m 87.936569,143.97835 q 0,-0.44787 0.103353,-0.96463 0.137804,-0.51677 0.37896,-0.96463 0.241157,-0.41341 0.620118,-0.72347 0.378961,-0.27561 0.930176,-0.27561 h 14.331604 q 0.44787,-1.24023 0.72347,-2.54937 0.27561,-1.27469 0.65457,-2.54937 0.93018,-3.34175 1.48139,-6.64904 0.58567,-3.34175 0.58567,-6.82129 0,-2.03261 -0.37896,-4.03077 -0.37896,-2.03261 -0.99908,-3.99631 -0.62012,-1.96371 -1.41249,-3.85851 -0.79237,-1.92926 -1.58474,-3.75516 -1.13689,-2.58382 -1.37804,-5.271 -0.20671,-2.687175 -0.20671,-5.477704 0,-2.204862 0.20671,-4.340823 0.24115,-2.170412 0.24115,-4.375274 -0.72347,-0.447863 -1.41249,-0.757922 -0.65456,-0.310059 -1.343584,-0.482313 -0.654568,-0.172255 -1.378039,-0.241157 -0.72347,-0.103353 -1.584745,-0.103353 -1.584745,0 -3.203941,0.413412 -1.619196,0.413411 -2.962784,1.240235 l -0.999078,-0.826824 q 0.551215,-1.033529 1.033529,-1.791451 0.516765,-0.792372 1.136882,-1.309137 0.654569,-0.516764 1.481392,-0.792372 0.861275,-0.275608 2.135961,-0.275608 0.447863,0 0.861275,0.0689 l 0.585666,0.103353 q 0.413412,0.0689 0.861275,0.0689 0.964627,0 1.619196,-0.241157 0.689019,-0.241157 1.240235,-0.620118 0.58567,-0.37896 1.10243,-0.826823 0.55122,-0.447863 1.27469,-0.861275 h 11.60998 q 0.10335,0.964628 0.2756,1.860353 l 0.17226,0.792373 q 0.17225,0.792372 0.31006,1.584745 0.27561,1.550294 0.51676,3.100588 l 0.34451,2.101509 q 0.24116,1.550294 0.51677,3.100588 5.02984,5.477706 9.57737,10.817615 4.58198,5.30545 8.68165,10.88651 4.09966,5.58105 7.71701,11.60998 3.61736,5.99447 6.71795,12.85021 l -1.10244,0.68902 q -0.72347,-0.79237 -1.48139,-1.55029 -0.75792,-0.75793 -1.55029,-1.5503 0.79237,1.5503 1.24023,3.16949 0.48232,1.65365 0.86128,3.3073 l -0.48232,0.89572 q -1.34358,0.41341 -2.79052,0.41341 -2.30822,0 -4.27193,-0.93017 -1.9637,-0.93018 -3.61735,-2.48047 -1.65365,-1.5503 -3.03168,-3.58291 -1.34359,-1.99815 -2.51493,-4.13411 -1.13688,-2.13596 -2.06706,-4.23747 -0.93017,-2.13596 -1.72254,-3.89296 -0.24116,2.44602 -0.79238,4.82313 -0.55121,2.34267 -1.13688,4.71979 l -0.89572,0.41341 -4.65089,-2.03261 -1.92925,8.16488 h 10.92096 q 0.65457,0 1.06798,0.24116 0.41341,0.24116 0.62012,0.62012 0.24115,0.41341 0.31006,0.89572 0.0689,0.51677 0.0689,1.06798 h -0.37896 q 0,-0.0689 0,-0.10335 0,-0.37896 -0.20671,-0.68902 -0.2067,-0.27561 -0.68902,-0.27561 H 89.831372 q -0.585666,0 -1.06798,0.31006 -0.447863,0.34451 -0.654568,0.86128 z m 35.622311,-10.61091 q 0.75792,-2.72162 1.27469,-5.4777 0.51676,-2.79053 0.51676,-5.64996 -1.37804,-0.93018 -3.03169,-2.06706 -1.61919,-1.17133 -3.27284,-2.48047 -1.65365,-1.30914 -3.27284,-2.72163 -1.6192,-1.44694 -2.99724,-2.99723 -1.37804,-1.5503 -2.44602,-3.13504 -1.03352,-1.6192 -1.58474,-3.23839 -0.41341,-1.20579 -0.65457,-2.44602 -0.24116,-1.24024 -0.41341,-2.48047 l 1.34359,-0.13781 q 0.17225,1.44694 0.48231,2.89388 0.34451,1.44695 0.96463,2.79053 1.06798,2.37712 3.03168,4.61643 1.99816,2.23932 4.51308,4.34083 2.54937,2.10151 5.44326,4.06521 2.92833,1.96371 5.82221,3.78961 2.89388,1.8259 5.58106,3.514 2.68718,1.6881 4.78869,3.20394 1.79145,1.30914 3.37619,2.82498 1.6192,1.51585 3.20394,3.10059 -2.79053,-6.06337 -6.33898,-11.64443 -3.54845,-5.58106 -7.57921,-10.81761 -4.03077,-5.23655 -8.44049,-10.19749 -4.37528,-4.995389 -8.81945,-9.852977 l -1.92926,-11.64443 h -9.95633 q -0.51676,0.447862 -1.17133,0.895725 -0.65457,0.447863 -1.37804,0.792372 -0.723472,0.34451 -1.481393,0.551216 -0.723471,0.206706 -1.446942,0.206706 -0.447862,0 -0.895725,-0.0689 l -0.620118,-0.0689 q -0.413411,-0.0689 -0.895725,-0.0689 -1.205784,0 -2.032608,0.310059 -0.826823,0.310059 -1.515843,1.309137 1.102432,-0.378961 2.377118,-0.620118 1.274686,-0.275607 2.48047,-0.275607 1.791451,0 3.479546,0.516764 1.6881,0.482314 3.23839,1.378039 l 0.31006,0.551216 q 0,2.721627 -0.2067,5.443255 -0.17226,2.687176 -0.17226,5.408803 0,1.860353 0.17226,3.75516 0.17225,1.86035 0.75792,3.61735 0.41341,1.24024 1.03353,2.37712 0.62012,1.13688 1.34359,2.23931 0.75792,1.06798 1.55029,2.10151 0.79237,1.03353 1.51584,2.10151 1.34359,1.92926 2.96279,4.20302 1.61919,2.27377 2.99723,4.61643 1.37804,2.30822 2.30822,4.54753 0.96463,2.23932 0.96463,4.06522 z m -18.67243,-48.610326 0.55122,-0.689019 q 0.86127,0.172255 1.55029,0.689019 -0.68902,0.482314 -1.55029,0.757922 z m 10.92096,41.478976 q -0.10335,-0.0689 -0.44786,-0.65457 -0.31006,-0.62011 -0.72347,-1.37804 -0.37896,-0.75792 -0.75792,-1.44694 -0.37897,-0.72347 -0.58567,-1.03353 -1.44694,-2.10151 -2.96279,-4.16856 -1.48139,-2.06706 -2.99723,-4.13412 0.72347,2.48047 1.24023,4.96094 0.55122,2.48047 0.55122,5.06429 0,1.72255 -0.20671,3.41065 -0.17225,1.6881 -0.41341,3.41065 1.6192,0 3.13504,0.51676 1.51584,0.51677 2.96279,1.20579 z m 11.54108,-2.85943 q 0.79237,1.6881 1.6881,3.78961 0.89572,2.06706 1.9637,4.23747 1.06798,2.13596 2.34267,4.16857 1.30913,2.06706 2.85943,3.6518 1.58474,1.6192 3.47955,2.58382 1.8948,0.96463 4.16857,0.96463 0.82682,0 1.79145,-0.17225 -0.55122,-2.41157 -1.20579,-4.20302 -0.62011,-1.757 -1.41249,-3.10059 -0.79237,-1.34359 -1.79145,-2.37712 -0.99908,-1.06798 -2.27376,-1.99815 -1.24024,-0.96463 -2.82498,-1.96371 -1.58475,-0.99908 -3.514,-2.23931 z m -21.39406,17.67335 h 9.50847 l 2.03261,-8.785 -0.68902,-4.13411 -0.99908,4.99539 -0.89573,0.41341 q -1.58474,-0.65457 -3.13503,-1.30914 -1.5503,-0.65457 -3.27285,-0.65457 z"
       id="text9"
       style="font-size:70.5556px;stroke-width:0.264583"
       aria-label="𓄿" />
  </g>
</svg>
