<?xml version="1.0" encoding="UTF-8" standalone="no"?>
<!-- Created with Inkscape (http://www.inkscape.org/) -->

<svg
   width="48.683372mm"
   height="51.505589mm"
   viewBox="0 0 48.683372 51.505589"
   version="1.1"
   id="svg1"
   inkscape:export-filename="cursive.png"
   inkscape:export-xdpi="15.652161"
   inkscape:export-ydpi="15.652161"
   sodipodi:docname="cursive.svg"
   inkscape:version="1.3.2 (091e20e, 2023-11-25, custom)"
   xmlns:inkscape="http://www.inkscape.org/namespaces/inkscape"
   xmlns:sodipodi="http://sodipodi.sourceforge.net/DTD/sodipodi-0.dtd"
   xmlns="http://www.w3.org/2000/svg"
   xmlns:svg="http://www.w3.org/2000/svg">
  <sodipodi:namedview
     id="namedview1"
     pagecolor="#ffffff"
     bordercolor="#000000"
     borderopacity="0.25"
     inkscape:showpageshadow="2"
     inkscape:pageopacity="0.0"
     inkscape:pagecheckerboard="0"
     inkscape:deskcolor="#d1d1d1"
     inkscape:document-units="mm"
     inkscape:zoom="4.1763672"
     inkscape:cx="92.06566"
     inkscape:cy="97.333396"
     inkscape:window-width="1920"
     inkscape:window-height="1009"
     inkscape:window-x="-8"
     inkscape:window-y="-8"
     inkscape:window-maximized="1"
     inkscape:current-layer="layer1" />
  <defs
     id="defs1" />
  <g
     inkscape:label="Layer 1"
     inkscape:groupmode="layer"
     id="layer1"
     transform="translate(-73.30269,-87.288526)">
    <path
       d="m 81.557696,138.79412 q -2.116668,0 -4.02167,-0.91722 -1.834445,-0.98778 -3.033891,-2.82223 -1.199445,-1.83444 -1.199445,-4.445 0,-2.61056 1.199445,-4.72723 1.270001,-2.18722 3.527781,-3.52778 2.257779,-1.34055 5.362225,-1.34055 1.76389,0 3.386669,0.42333 1.693335,0.42333 3.104447,1.12889 l 7.408338,-16.01612 q -2.89278,-0.98778 -5.009448,-2.39889 -2.116668,-1.48167 -3.52778,-2.89278 -1.340556,-1.48167 -2.046112,-2.328338 l 3.386669,-3.316113 q 0.564444,0.917223 1.693334,2.257779 1.199445,1.270001 2.963335,2.540002 1.834446,1.27 4.445003,2.04611 l 3.104444,-6.773335 q 1.62278,-3.598336 4.09223,-5.997227 2.54,-2.39889 6.49111,-2.39889 4.58612,0 6.56167,2.39889 1.97556,2.328335 1.97556,5.432782 0,3.316113 -2.11667,6.20889 -2.11666,2.89278 -5.92667,4.65667 -3.73944,1.76389 -8.74889,1.76389 -1.34056,0 -2.68112,-0.14111 l -8.113889,17.6389 q 1.905001,1.62278 3.951113,3.73945 2.046113,2.11667 4.586116,3.66889 2.54,1.48167 5.99722,1.48167 2.04612,0 4.9389,-0.84667 2.89278,-0.84667 6.35,-3.10445 l 2.32834,3.6689 q -3.45723,2.18722 -7.05556,3.59833 -3.59834,1.34056 -7.12612,1.34056 -4.02167,0 -6.84389,-1.48167 -2.822228,-1.48167 -5.009451,-3.59834 -2.187224,-2.11666 -4.162781,-4.02166 l -1.270001,2.75166 q -1.340556,2.96334 -3.668891,4.65667 -2.328335,1.69334 -5.29167,1.69334 z m 24.976684,-41.133919 -2.54,5.503339 h 0.56444 q 5.43278,0 8.60779,-2.04611 3.175,-2.116672 3.175,-5.36223 0,-1.693334 -0.98778,-2.751668 -0.91722,-1.12889 -2.82222,-1.12889 -2.04612,0 -3.38667,1.552223 -1.34056,1.481668 -2.61056,4.233336 z m -0.28222,25.329459 q -1.69334,0 -2.54,-1.05833 -0.77612,-1.05834 -0.77612,-3.45723 0,-4.23333 3.31612,-4.23333 3.175,0 3.175,4.23333 0,2.39889 -0.91722,3.45723 -0.91723,1.05833 -2.25778,1.05833 z m -27.869466,7.54945 q 0,1.76389 1.058334,2.75167 1.058334,0.91722 2.328334,0.91722 0.987779,0 2.25778,-0.77611 1.270001,-0.77611 2.187223,-2.89278 l 1.693335,-3.66889 q -0.987778,-0.56444 -2.116668,-0.91722 -1.058334,-0.35278 -2.257779,-0.35278 -2.681113,0 -3.951114,1.55222 -1.199445,1.55223 -1.199445,3.38667 z"
       id="text6"
       style="font-size:70.5556px;stroke-width:0.264583"
       aria-label="ðž‹" />
  </g>
</svg>
