<?xml version="1.0" encoding="UTF-8" standalone="no"?>
<!-- Created with Inkscape (http://www.inkscape.org/) -->

<svg
   width="40.075581mm"
   height="52.352257mm"
   viewBox="0 0 40.075581 52.352257"
   version="1.1"
   id="svg1"
   inkscape:export-filename="donut.png"
   inkscape:export-xdpi="19.014072"
   inkscape:export-ydpi="19.014072"
   sodipodi:docname="donut.svg"
   inkscape:version="1.3.2 (091e20e, 2023-11-25, custom)"
   xmlns:inkscape="http://www.inkscape.org/namespaces/inkscape"
   xmlns:sodipodi="http://sodipodi.sourceforge.net/DTD/sodipodi-0.dtd"
   xmlns="http://www.w3.org/2000/svg"
   xmlns:svg="http://www.w3.org/2000/svg">
  <sodipodi:namedview
     id="namedview1"
     pagecolor="#ffffff"
     bordercolor="#000000"
     borderopacity="0.25"
     inkscape:showpageshadow="2"
     inkscape:pageopacity="0.0"
     inkscape:pagecheckerboard="0"
     inkscape:deskcolor="#d1d1d1"
     inkscape:document-units="mm"
     inkscape:zoom="4.1088248"
     inkscape:cx="75.812432"
     inkscape:cy="98.933399"
     inkscape:window-width="1920"
     inkscape:window-height="1009"
     inkscape:window-x="-8"
     inkscape:window-y="-8"
     inkscape:window-maximized="1"
     inkscape:current-layer="layer1" />
  <defs
     id="defs1" />
  <g
     inkscape:label="Layer 1"
     inkscape:groupmode="layer"
     id="layer1"
     transform="translate(-90.082049,-66.222479)">
    <path
       d="m 107.57984,70.032479 q 0,1.76389 -1.05834,2.751669 -1.05833,0.987778 -2.75167,0.987778 -3.73944,0 -3.73944,-3.739447 0,-1.76389 1.05833,-2.751668 1.05833,-1.058334 2.68111,-1.058334 1.69334,0 2.75167,1.058334 1.05834,0.987778 1.05834,2.751668 z m 12.77056,0 q 0,1.76389 -1.05833,2.751669 -1.05834,0.987778 -2.75167,0.987778 -3.73945,0 -3.73945,-3.739447 0,-1.76389 1.05833,-2.751668 1.05834,-1.058334 2.68112,-1.058334 1.62278,0 2.68111,1.058334 1.12889,0.987778 1.12889,2.751668 z M 90.082046,98.74861 q 0,-4.162781 1.552223,-7.761117 1.552224,-3.598335 4.303892,-6.350004 2.751669,-2.822224 6.350009,-4.374447 3.66889,-1.552224 7.76111,-1.552224 4.16278,0 7.76112,1.552224 3.66889,1.552223 6.42056,4.374447 2.82222,2.751669 4.37445,6.350004 1.55222,3.598336 1.55222,7.761117 0,4.16278 -1.55222,7.76112 -1.55223,3.59833 -4.37445,6.35 -2.75167,2.68111 -6.42056,4.23334 -3.59834,1.48166 -7.76112,1.48166 -4.09222,0 -7.76111,-1.48166 -3.59834,-1.55223 -6.350009,-4.23334 -2.751668,-2.75167 -4.303892,-6.35 -1.552223,-3.59834 -1.552223,-7.76112 z m 5.362226,0 q 0,4.23334 2.046112,7.62 2.046113,3.38667 5.362226,5.36223 3.38667,1.905 7.19667,1.905 3.95112,0 7.26723,-1.905 3.38667,-1.97556 5.43278,-5.36223 2.04611,-3.38666 2.04611,-7.62 0,-4.303892 -2.04611,-7.690561 -2.04611,-3.457225 -5.43278,-5.432781 -3.31611,-1.975557 -7.26723,-1.975557 -3.81,0 -7.19667,1.975557 -3.316113,1.975556 -5.362226,5.432781 -2.046112,3.386669 -2.046112,7.690561 z m 5.997228,-0.141111 q 0,-2.398891 1.19944,-4.303892 1.19945,-1.975557 3.17501,-3.104447 2.04611,-1.128889 4.37444,-1.128889 2.32834,0 4.30389,1.128889 1.97556,1.12889 3.17501,3.104447 1.19944,1.905001 1.19944,4.303892 0,2.328331 -1.19944,4.303891 -1.19945,1.905 -3.17501,3.03389 -1.97555,1.12889 -4.30389,1.12889 -2.32833,0 -4.37444,-1.12889 -1.97556,-1.12889 -3.17501,-3.03389 -1.19944,-1.97556 -1.19944,-4.303891 z m 4.65667,-0.07056 q 0,1.763891 1.19944,2.963341 1.27,1.12889 2.89278,1.12889 1.62278,0 2.82223,-1.12889 1.19944,-1.19945 1.19944,-2.963341 0,-1.834446 -1.19944,-2.89278 -1.19945,-1.128889 -2.82223,-1.128889 -1.62278,0 -2.89278,1.128889 -1.19944,1.12889 -1.19944,2.89278 z"
       id="text6"
       style="font-size:70.5556px;stroke-width:0.264583"
       aria-label="𞡜" />
  </g>
</svg>
