<?xml version="1.0" encoding="UTF-8" standalone="no"?>
<!-- Created with Inkscape (http://www.inkscape.org/) -->

<svg
   width="50.165115mm"
   height="44.450024mm"
   viewBox="0 0 50.165115 44.450024"
   version="1.1"
   id="svg1"
   inkscape:export-filename="fourteen.png"
   inkscape:export-xdpi="15.189838"
   inkscape:export-ydpi="15.189838"
   sodipodi:docname="fourteen.svg"
   inkscape:version="1.3.2 (091e20e, 2023-11-25, custom)"
   xmlns:inkscape="http://www.inkscape.org/namespaces/inkscape"
   xmlns:sodipodi="http://sodipodi.sourceforge.net/DTD/sodipodi-0.dtd"
   xmlns="http://www.w3.org/2000/svg"
   xmlns:svg="http://www.w3.org/2000/svg">
  <sodipodi:namedview
     id="namedview1"
     pagecolor="#ffffff"
     bordercolor="#000000"
     borderopacity="0.25"
     inkscape:showpageshadow="2"
     inkscape:pageopacity="0.0"
     inkscape:pagecheckerboard="0"
     inkscape:deskcolor="#d1d1d1"
     inkscape:document-units="mm"
     inkscape:zoom="4.8392831"
     inkscape:cx="94.745438"
     inkscape:cy="84.000045"
     inkscape:window-width="1920"
     inkscape:window-height="1009"
     inkscape:window-x="-8"
     inkscape:window-y="-8"
     inkscape:window-maximized="1"
     inkscape:current-layer="layer1" />
  <defs
     id="defs1" />
  <g
     inkscape:label="Layer 1"
     inkscape:groupmode="layer"
     id="layer1"
     transform="translate(-102.62806,-93.248143)">
    <path
       d="m 152.22865,136.2165 q -1.12889,0.56445 -2.54,0.77611 -1.41111,0.14112 -2.61056,0.14112 -4.23333,0 -5.92667,-3.10445 -1.62278,-3.175 -1.62278,-8.11389 0,-3.6689 0.35278,-5.78556 -2.61055,1.19944 -6.13833,1.19944 -3.0339,0 -5.50334,-1.19944 -2.46945,-1.27001 -3.95112,-3.52778 -1.41111,-2.25778 -1.41111,-5.22112 0,-1.19944 0,-2.75167 0.0706,-1.55222 0.0706,-2.96333 0,-1.48167 0,-2.32834 0,-0.98778 -0.28222,-1.905 -0.21167,-0.98778 -1.19945,-1.622778 -0.91722,-0.705556 -3.10445,-0.846667 -0.635,-0.07056 -0.98777,-0.635001 -0.28223,-0.635 -0.28223,-1.481667 0,-1.199446 0.635,-2.398891 0.635,-1.199445 1.83445,-1.199445 3.88056,0 6.49111,2.257779 2.61056,2.187224 2.61056,6.42056 0,1.34056 0,3.31611 0.0706,1.905 0.14111,3.73945 0.0706,1.76389 0.0706,2.68111 0.14111,1.905 1.12889,2.96334 1.05833,1.05833 3.38667,1.05833 2.68111,0 4.93889,-1.27 2.25778,-1.27 2.61056,-3.88056 0.635,-4.30389 1.05833,-7.19667 0.49389,-2.96333 0.77611,-4.727223 0.21167,-1.199446 0.56445,-1.905002 0.42333,-0.705556 1.27,-0.705556 1.55222,0 3.03389,1.199446 1.48167,1.128889 1.48167,2.610557 0,0.917218 -0.635,3.245558 -0.635,2.32833 -1.48167,5.715 -0.77611,3.31612 -1.41111,7.4789 -0.635,4.16278 -0.635,8.89 0,3.52778 0.56444,4.9389 0.635,1.41111 2.39889,1.41111 0.56445,0 1.41111,-0.14111 0.84667,-0.21167 1.34056,-0.21167 1.05833,0 1.55222,1.27 0.56445,1.19945 0.56445,2.39889 0,1.12889 -0.56445,1.41111 z m -46.56669,-32.17335 q -1.34056,-1.05834 -2.18723,-1.62278 -0.84667,-0.56445 -0.84667,-1.62278 0,-1.411112 1.12889,-2.328335 1.12889,-0.917222 2.25778,-0.917222 1.41112,0 2.89278,0.917222 1.48167,0.917223 2.82223,2.822225 1.34055,1.905 2.11667,5.50334 0.84666,3.52778 1.48166,8.04334 0.42334,2.96333 1.19945,5.92667 0.77611,2.89278 1.97555,5.22111 1.27001,2.32834 2.96334,3.66889 2.18722,1.62278 4.16278,1.97556 2.04611,0.35278 4.02167,0.35278 0.77611,0 1.19945,1.05833 0.42333,0.98778 0.42333,2.04611 0,0.98778 -0.56445,1.83445 -0.49388,0.77611 -1.55222,0.77611 -1.69333,0 -3.31611,-0.14111 -1.62278,-0.0706 -3.52778,-0.77611 -4.16278,-1.55223 -6.63223,-4.72723 -2.39889,-3.175 -3.59833,-7.19667 -1.19945,-4.09222 -1.90501,-8.04334 -0.70555,-4.16278 -1.62278,-7.69056 -0.84666,-3.52778 -2.89277,-5.08 z"
       id="text9"
       style="font-size:70.5556px;stroke-width:0.264583"
       aria-label="𑈩" />
  </g>
</svg>
