<?xml version="1.0" encoding="UTF-8" standalone="no"?>
<!-- Created with Inkscape (http://www.inkscape.org/) -->

<svg
   width="45.649475mm"
   height="51.082253mm"
   viewBox="0 0 45.649475 51.082253"
   version="1.1"
   id="svg1"
   inkscape:export-filename="loopdeloop.png"
   inkscape:export-xdpi="16.692415"
   inkscape:export-ydpi="16.692415"
   sodipodi:docname="loopdeloop.svg"
   inkscape:version="1.3.2 (091e20e, 2023-11-25, custom)"
   xmlns:inkscape="http://www.inkscape.org/namespaces/inkscape"
   xmlns:sodipodi="http://sodipodi.sourceforge.net/DTD/sodipodi-0.dtd"
   xmlns="http://www.w3.org/2000/svg"
   xmlns:svg="http://www.w3.org/2000/svg">
  <sodipodi:namedview
     id="namedview1"
     pagecolor="#ffffff"
     bordercolor="#000000"
     borderopacity="0.25"
     inkscape:showpageshadow="2"
     inkscape:pageopacity="0.0"
     inkscape:pagecheckerboard="0"
     inkscape:deskcolor="#d1d1d1"
     inkscape:document-units="mm"
     inkscape:zoom="4.2109782"
     inkscape:cx="86.321986"
     inkscape:cy="96.533391"
     inkscape:window-width="1920"
     inkscape:window-height="1009"
     inkscape:window-x="-8"
     inkscape:window-y="-8"
     inkscape:window-maximized="1"
     inkscape:current-layer="layer1" />
  <defs
     id="defs1" />
  <g
     inkscape:label="Layer 1"
     inkscape:groupmode="layer"
     id="layer1"
     transform="translate(-91.6327,-61.285109)">
    <path
       d="m 91.632702,111.23847 v -4.37444 h 11.500568 q 1.97555,0 3.66889,-0.35278 -3.52778,-4.58612 -3.52778,-11.853343 V 73.067892 q 0,-5.573893 2.61055,-8.678339 2.61056,-3.104447 7.26723,-3.104447 4.65667,0 7.19667,3.104447 2.54,3.033891 2.54,8.678339 v 18.908902 q 0,9.454446 -4.93889,14.746116 0.91722,0.14112 1.905,0.14112 h 3.88056 q 3.73945,0 5.50334,-2.04612 1.76389,-2.11666 1.76389,-6.491112 v -1.975557 h 6.27945 v 1.975557 q 0,6.843892 -3.45723,10.442232 -3.38667,3.59833 -10.08945,3.59833 h -3.59833 q -4.51556,0 -8.04334,-1.62278 -4.02167,1.62278 -9.24279,1.62278 h -6.420557 q -0.987778,0 -2.540001,-0.35278 -1.481668,-0.35277 -2.25778,-0.77611 z M 109.55383,94.657907 q 0,5.997223 2.89278,9.172233 4.16278,-3.6689 4.16278,-11.853346 V 73.067892 q 0,-6.279449 -3.45723,-6.279449 -3.59833,0 -3.59833,6.279449 z"
       id="text1"
       style="font-size:70.5556px;stroke-width:0.264583"
       aria-label="ð´Ž" />
  </g>
</svg>
