<?xml version="1.0" encoding="UTF-8" standalone="no"?>
<!-- Created with Inkscape (http://www.inkscape.org/) -->

<svg
   width="94.696091mm"
   height="98.365578mm"
   viewBox="0 0 94.696091 98.365578"
   version="1.1"
   id="svg1"
   sodipodi:docname="mona.svg"
   inkscape:export-filename="mona.png"
   inkscape:export-xdpi="9.3879271"
   inkscape:export-ydpi="9.3879271"
   inkscape:version="1.3.2 (091e20e, 2023-11-25, custom)"
   xmlns:inkscape="http://www.inkscape.org/namespaces/inkscape"
   xmlns:sodipodi="http://sodipodi.sourceforge.net/DTD/sodipodi-0.dtd"
   xmlns="http://www.w3.org/2000/svg"
   xmlns:svg="http://www.w3.org/2000/svg">
  <sodipodi:namedview
     id="namedview1"
     pagecolor="#ffffff"
     bordercolor="#000000"
     borderopacity="0.25"
     inkscape:showpageshadow="2"
     inkscape:pageopacity="0.0"
     inkscape:pagecheckerboard="0"
     inkscape:deskcolor="#d1d1d1"
     inkscape:document-units="mm"
     inkscape:zoom="2.1868041"
     inkscape:cx="179.02838"
     inkscape:cy="185.88771"
     inkscape:window-width="1920"
     inkscape:window-height="1009"
     inkscape:window-x="-8"
     inkscape:window-y="-8"
     inkscape:window-maximized="1"
     inkscape:current-layer="svg1" />
  <defs
     id="defs1" />
  <g
     id="layer1"
     transform="translate(-57.84387,-75.149595)">
    <path
       d="m 152.53996,173.51516 h -9.1145 q -3.84702,-4.55725 -15.21056,-4.55725 -9.82471,0 -16.98611,4.55725 H 99.214227 q -7.161392,-4.55725 -17.045297,-4.55725 -11.363531,0 -15.21056,4.55725 h -9.114499 v -11.12679 q 5.208285,-4.55725 5.208285,-15.74323 0,-6.68791 -0.828591,-9.58798 -0.82859,-2.95925 -4.379694,-9.05531 v -7.33895 q 5.208285,-8.52265 5.208285,-18.64329 0,-11.185977 -5.208285,-15.743227 V 75.149592 h 9.114499 q 3.847029,4.55725 15.21056,4.55725 9.883905,0 17.045297,-4.55725 h 12.014563 q 7.1614,4.55725 16.98611,4.55725 11.36354,0 15.21056,-4.55725 h 9.1145 v 11.126791 q -5.20828,4.55725 -5.20828,15.743227 0,6.68791 0.82859,9.64716 0.82859,2.90007 4.37969,8.99613 v 7.39813 q -3.5511,6.15525 -4.37969,9.05532 -0.82859,2.84088 -0.82859,9.52879 0,11.18598 5.20828,15.74323 z M 137.15185,158.60052 V 88.821341 H 74.356502 v 69.779179 z m -1.42044,-42.61324 h -15.56567 q -0.23674,-1.71636 -0.23674,-3.78784 0,-7.39813 3.78784,-7.39813 4.91236,0 5.26747,3.66947 -0.11837,-4.97154 6.7471,-7.22058 z m -1.00615,37.6417 q 0,1.47963 -0.11837,2.7817 H 77.61168 q 2.189848,-4.32051 4.32051,-8.70021 3.077623,-5.80013 5.208285,-7.69405 -1.183701,-4.14296 -1.183701,-8.87776 0,-8.46347 6.747096,-16.09834 -0.828591,-4.14295 -0.828591,-9.35124 0,-5.1491 3.136808,-8.759386 3.195994,-3.669474 8.226723,-3.669474 8.46346,0 13.19827,18.34737 1.42044,5.56339 6.45117,5.80013 2.3674,2.95926 6.09606,9.17369 1.00615,2.42659 3.37355,13.49419 2.3674,11.06761 2.3674,13.55338 z M 90.158913,115.98728 H 75.954499 v -12.90234 q 1.006146,-1.42044 2.840883,-1.42044 3.906213,0 3.906213,3.90621 0,0.59185 -0.11837,1.06533 1.716367,-2.18984 3.551104,-2.18984 3.551103,0 4.024584,11.54108 z m 23.555657,7.33895 q -7.1614,-7.39813 -7.1614,-12.01457 0,-1.06533 0.47348,-3.19599 0.53267,-2.18985 0.53267,-3.31436 0,-2.24904 -1.36126,-4.55725 -1.59799,-2.663331 -3.66947,-2.663331 -2.18985,0 -4.43888,0.473481 -2.249032,4.20214 -2.249032,7.57569 0,1.65718 1.065331,3.9654 1.242887,2.60414 2.604143,2.95925 0.295925,0.53266 0.591848,1.06533 0.29593,0.47348 1.1837,0.35511 l -0.29592,3.25518 h -0.29593 q -2.781695,-0.11837 -5.326652,3.25518 -1.953107,2.60414 -3.018438,5.9185 l 14.73708,3.01844 q 2.30822,-4.49806 6.62873,-6.09606 z m 1.30207,25.03528 q 0,-2.60414 -5.44503,-5.20829 -3.90621,-1.53881 -7.81243,-3.1368 -4.37969,1.06533 -4.37969,2.78169 0,1.42045 1.834737,3.49192 h 2.367403 q 0.29592,1.89392 2.54496,3.25518 2.01229,1.24289 4.08377,1.42044 l -1.00615,-1.30207 1.06533,-0.4143 1.30207,1.71637 1.53881,-0.41429 -1.47962,-1.89393 0.94696,-0.29592 1.71636,1.83474 1.65719,-0.53267 -2.54496,-2.3674 0.53266,-0.4143 q 1.18371,0.88778 3.01844,1.83474 z m -11.12679,2.42659 -2.72252,-2.54496 -4.438876,1.36126 v 3.25517 l 2.544958,2.0123 q 1.538808,-1.36126 4.616438,-4.08377 z m 2.18984,-48.53175 q -1.12451,1.598 -3.37355,2.01229 -0.53266,0.59185 -0.7694,1.89392 -0.23674,-2.24903 -0.23674,-2.42658 0,-1.12452 1.06533,-1.12452 0.35511,0 1.12452,0.17755 0.82859,0.11837 1.24288,0.11837 l 0.47348,-0.11837 z m -6.214428,1.95311 q -0.35511,0.0592 -3.373548,0.71022 v -1.30207 q 0.651036,-0.4143 1.479626,-0.4143 0.710221,0 1.893922,1.00615 z m 2.781698,4.43888 q -0.4143,0.65103 -1.42044,0.65103 -1.302073,0 -1.479628,-1.00615 0.355108,0.23675 1.065328,0.53267 0.4143,-0.23674 1.00615,-0.59185 z m 1.71637,0.59185 q -0.59185,1.53881 -2.54496,1.77555 l -0.17756,0.0592 q -0.35511,0 -1.775548,-0.29592 2.012288,-0.23674 2.426588,-0.35511 0.41429,-0.17756 2.07148,-1.1837 z m -1.12452,-5.44503 q -0.53267,-0.23674 -0.35511,-0.76941 l -0.65104,0.94697 z m -5.38584,0.59185 -0.35511,-0.82859 -0.591851,0.94696 z"
       id="text1"
       style="font-size:121.211px;stroke-width:1.26262"
       aria-label="🖼" />
  </g>
</svg>
