<?xml version="1.0" encoding="UTF-8" standalone="no"?>
<!-- Created with Inkscape (http://www.inkscape.org/) -->

<svg
   width="71.830299mm"
   height="76.756783mm"
   viewBox="0 0 71.830299 76.756783"
   version="1.1"
   id="svg1"
   inkscape:export-filename="seraphim.png"
   inkscape:export-xdpi="10.608337"
   inkscape:export-ydpi="10.608337"
   sodipodi:docname="seraphim.svg"
   inkscape:version="1.3.2 (091e20e, 2023-11-25, custom)"
   xmlns:inkscape="http://www.inkscape.org/namespaces/inkscape"
   xmlns:sodipodi="http://sodipodi.sourceforge.net/DTD/sodipodi-0.dtd"
   xmlns="http://www.w3.org/2000/svg"
   xmlns:svg="http://www.w3.org/2000/svg">
  <sodipodi:namedview
     id="namedview1"
     pagecolor="#ffffff"
     bordercolor="#000000"
     borderopacity="0.25"
     inkscape:showpageshadow="2"
     inkscape:pageopacity="0.0"
     inkscape:pagecheckerboard="0"
     inkscape:deskcolor="#d1d1d1"
     inkscape:document-units="mm"
     inkscape:zoom="2.8024396"
     inkscape:cx="135.77456"
     inkscape:cy="145.05219"
     inkscape:window-width="1920"
     inkscape:window-height="1009"
     inkscape:window-x="-8"
     inkscape:window-y="-8"
     inkscape:window-maximized="1"
     inkscape:current-layer="layer1" />
  <defs
     id="defs1" />
  <g
     inkscape:label="Layer 1"
     inkscape:groupmode="layer"
     id="layer1"
     transform="translate(-100.21161,-75.559377)">
    <path
       d="m 100.21161,113.93776 q 0,-4.75424 1.03353,-8.44049 1.03353,-3.72071 2.23931,-5.925568 1.24024,-2.239314 3.23839,-5.236549 l -2.79053,-17.742254 0.89573,-1.033529 20.98065,6.545686 -0.44787,1.378039 -5.5466,4.58198 q -6.23563,5.133196 -10.19749,11.747784 -3.96187,6.580141 -3.96187,14.124901 0,7.54476 3.96187,14.15935 3.96186,6.58014 10.19749,11.71333 l 5.5466,4.58198 0.44787,1.37804 -20.98065,6.54569 -0.89573,-1.03353 2.79053,-17.74225 q -1.99815,-2.99724 -3.23839,-5.2021 -1.20578,-2.23932 -2.23931,-5.92557 -1.03353,-3.72071 -1.03353,-8.47494 z m 16.91543,30.04125 -6.37343,-6.27008 -1.06798,8.75055 z m -6.37343,-53.812425 6.37343,-6.270078 -7.44141,-2.480471 z m 1.34359,26.217195 v -4.54753 h 10.47309 q 0.44787,-3.13504 2.34267,-5.78776 l -7.37251,-7.372514 3.23839,-3.238392 7.33806,7.338056 q 2.72163,-1.92925 5.82222,-2.44602 V 89.99433 h 4.54753 v 10.30084 q 3.23839,0.51677 5.85666,2.44602 l 7.30361,-7.303606 3.23839,3.238392 -7.37251,7.372514 q 1.8259,2.58382 2.30822,5.78776 h 10.50755 v 4.54753 h -10.542 q -0.55122,3.10059 -2.41157,5.64996 l 7.51031,7.51031 -3.23839,3.23839 -7.51031,-7.51031 q -2.51493,1.79145 -5.64996,2.30822 v 10.64535 h -4.54753 v -10.6798 q -2.99724,-0.48232 -5.61551,-2.30822 l -7.54477,7.54476 -3.23839,-3.23839 7.51031,-7.51031 q -1.8948,-2.51492 -2.44602,-5.64996 z m 15.50294,-2.44602 q 0,1.79145 0.65457,3.3762 0.65456,1.55029 1.86035,2.75607 1.20578,1.20579 2.75608,1.86036 1.58474,0.65457 3.37619,0.65457 1.757,0 3.3073,-0.65457 1.58474,-0.68902 2.79053,-1.89481 1.17133,-1.17133 1.8259,-2.75608 0.65457,-1.58474 0.65457,-3.34174 0,-1.757 -0.65457,-3.34175 -0.65457,-1.58474 -1.8259,-2.75607 -1.20579,-1.20579 -2.79053,-1.86036 -1.5503,-0.68902 -3.3073,-0.68902 -1.79145,0 -3.37619,0.65457 -1.5503,0.65457 -2.75608,1.86036 -1.20579,1.20578 -1.86035,2.79052 -0.65457,1.5503 -0.65457,3.34175 z m 5.92556,0 q 0,-1.17133 0.75793,-1.92926 0.79237,-0.79237 1.92925,-0.79237 1.13688,0 1.92926,0.79237 0.75792,0.75793 0.75792,1.92926 0,1.17133 -0.75792,1.92925 -0.79238,0.79238 -1.92926,0.79238 -1.13688,0 -1.92925,-0.79238 -0.75793,-0.75792 -0.75793,-1.92925 z m 13.36698,30.45466 5.54661,-4.58198 q 6.23563,-5.13319 10.19749,-11.71333 3.96186,-6.61459 3.96186,-14.15935 0,-7.54476 -3.96186,-14.124901 -3.96186,-6.614588 -10.19749,-11.747784 l -5.54661,-4.58198 -0.44786,-1.378039 20.98065,-6.545686 0.89572,1.033529 -2.79053,17.742254 q 1.99816,2.997235 3.20394,5.236549 1.24024,2.204858 2.27377,5.925568 1.03353,3.68625 1.03353,8.44049 0,4.75423 -1.03353,8.47494 -1.03353,3.68625 -2.27377,5.92557 -1.20578,2.20486 -3.20394,5.2021 l 2.79053,17.74225 -0.89572,1.03353 -20.98065,-6.54569 z m 15.6752,2.06706 -1.06798,-8.75055 -6.37343,6.27008 z m -1.06798,-56.292895 1.06798,-8.750549 -7.44141,2.480471 z"
       id="text9"
       style="font-size:70.5556px;stroke-width:0.264583"
       aria-label="𖡨" />
  </g>
</svg>
