<?xml version="1.0" encoding="UTF-8" standalone="no"?>
<!-- Created with Inkscape (http://www.inkscape.org/) -->

<svg
   width="42.478058mm"
   height="48.093559mm"
   viewBox="0 0 42.478058 48.093559"
   version="1.1"
   id="svg1"
   inkscape:export-filename="theta.png"
   inkscape:export-xdpi="17.938673"
   inkscape:export-ydpi="17.938673"
   sodipodi:docname="theta.svg"
   inkscape:version="1.3.2 (091e20e, 2023-11-25, custom)"
   xmlns:inkscape="http://www.inkscape.org/namespaces/inkscape"
   xmlns:sodipodi="http://sodipodi.sourceforge.net/DTD/sodipodi-0.dtd"
   xmlns="http://www.w3.org/2000/svg"
   xmlns:svg="http://www.w3.org/2000/svg">
  <sodipodi:namedview
     id="namedview1"
     pagecolor="#ffffff"
     bordercolor="#000000"
     borderopacity="0.25"
     inkscape:showpageshadow="2"
     inkscape:pageopacity="0.0"
     inkscape:pagecheckerboard="0"
     inkscape:deskcolor="#d1d1d1"
     inkscape:document-units="mm"
     inkscape:zoom="4.4726623"
     inkscape:cx="80.377184"
     inkscape:cy="90.885466"
     inkscape:window-width="1920"
     inkscape:window-height="1009"
     inkscape:window-x="-8"
     inkscape:window-y="-8"
     inkscape:window-maximized="1"
     inkscape:current-layer="layer1" />
  <defs
     id="defs1" />
  <g
     inkscape:label="Layer 1"
     inkscape:groupmode="layer"
     id="layer1"
     transform="translate(-86.364138,-93.799588)">
    <path
       d="m 107.00028,141.89315 q -10.335297,0 -15.502944,-5.92557 -5.133196,-5.96001 -5.133196,-17.74225 0,-7.82037 2.514922,-13.26363 2.514921,-5.44325 7.372509,-8.302681 4.857589,-2.859431 11.609979,-2.859431 10.43865,0 15.70965,5.925568 5.271,5.891114 5.271,17.535544 0,8.40604 -2.68718,13.9182 -2.68718,5.51216 -7.54476,8.13043 -4.85759,2.58382 -11.60998,2.58382 z m -9.818533,-24.56354 q 0,10.40419 2.618275,15.50294 2.618278,5.06429 8.061528,5.06429 5.02984,0 7.57922,-4.85759 2.58382,-4.85759 2.58382,-14.36606 0,-10.36974 -2.58382,-15.60629 -2.58383,-5.236548 -7.92373,-5.236548 -5.23655,0 -7.78592,4.788688 -2.549373,4.75423 -2.549373,14.71057 z m 17.053233,-6.06338 v 12.50571 h -3.10059 q -0.48231,-1.757 -1.13688,-2.34267 -0.65457,-0.58566 -2.17041,-0.58566 h -0.51677 q -1.61919,0 -2.27376,0.65456 -0.62012,0.65457 -1.03353,2.27377 h -3.10059 v -12.50571 h 3.20394 q 0.41342,1.6192 1.03353,2.27377 0.65457,0.65457 2.27377,0.65457 h 0.51676 q 1.51585,0 2.17041,-0.58567 0.65457,-0.58567 1.13689,-2.34267 z"
       id="text6"
       style="font-size:70.5556px;stroke-width:0.264583"
       aria-label="ðš¯" />
  </g>
</svg>
