<?xml version="1.0" encoding="UTF-8" standalone="no"?>
<!-- Created with Inkscape (http://www.inkscape.org/) -->

<svg
   width="74.930038mm"
   height="51.999477mm"
   viewBox="0 0 74.930038 51.999477"
   version="1.1"
   id="svg1"
   inkscape:export-filename="winding_trail.png"
   inkscape:export-xdpi="10.169487"
   inkscape:export-ydpi="10.169487"
   sodipodi:docname="winding_trail.svg"
   inkscape:version="1.3.2 (091e20e, 2023-11-25, custom)"
   xmlns:inkscape="http://www.inkscape.org/namespaces/inkscape"
   xmlns:sodipodi="http://sodipodi.sourceforge.net/DTD/sodipodi-0.dtd"
   xmlns="http://www.w3.org/2000/svg"
   xmlns:svg="http://www.w3.org/2000/svg">
  <sodipodi:namedview
     id="namedview1"
     pagecolor="#ffffff"
     bordercolor="#000000"
     borderopacity="0.25"
     inkscape:showpageshadow="2"
     inkscape:pageopacity="0.0"
     inkscape:pagecheckerboard="0"
     inkscape:deskcolor="#d1d1d1"
     inkscape:document-units="mm"
     inkscape:zoom="4.1367002"
     inkscape:cx="141.53793"
     inkscape:cy="98.266729"
     inkscape:window-width="1920"
     inkscape:window-height="1009"
     inkscape:window-x="-8"
     inkscape:window-y="-8"
     inkscape:window-maximized="1"
     inkscape:current-layer="layer1" />
  <defs
     id="defs1" />
  <g
     inkscape:label="Layer 1"
     inkscape:groupmode="layer"
     id="layer1"
     transform="translate(-83.921854,-80.725423)">
    <path
       d="m 158.78135,89.262651 q 0,2.328335 -1.19945,4.303891 -1.19944,1.905002 -3.175,3.033891 -1.97556,1.12889 -4.37445,1.12889 -1.97555,0 -3.66889,-0.776112 -1.69333,-0.846667 -2.89278,-2.187223 l -24.05946,7.196672 9.31334,7.90223 1.41111,-0.42334 q 4.09223,-1.19944 8.25501,-2.11666 4.23333,-0.91723 7.54945,-0.91723 5.22111,0 7.97278,1.34056 2.82222,1.34056 3.88056,3.31611 1.05833,1.905 1.05833,3.59834 0,4.445 -3.38667,6.70278 -3.31611,2.25778 -8.60778,2.25778 -3.88056,0 -7.47889,-1.34056 -3.59834,-1.41111 -6.70279,-3.45722 -3.03389,-2.04611 -5.50333,-4.02167 l -25.96446,7.76112 q 0.21166,0.70555 0.21166,1.62277 0,2.39889 -1.19944,4.37445 -1.199449,1.905 -3.175005,3.03389 -1.975557,1.12889 -4.303892,1.12889 -2.328335,0 -4.374448,-1.12889 -1.975556,-1.12889 -3.175002,-3.03389 -1.199445,-1.97556 -1.199445,-4.37445 0,-2.39889 1.199445,-4.30389 1.199446,-1.905 3.175002,-3.03389 2.046113,-1.12889 4.374448,-1.12889 1.905001,0 3.598336,0.77611 1.76389,0.77612 2.963335,2.18723 l 24.059456,-7.19667 -9.31334,-7.90223 -1.41111,0.42333 q -4.09222,1.19945 -8.32556,2.11667 -4.16278,0.91722 -7.478892,0.91722 -5.221115,0 -8.043339,-1.34055 -2.751669,-1.41112 -3.810003,-3.31612 -1.058334,-1.905 -1.058334,-3.598333 0,-4.445003 3.316114,-6.702782 3.386669,-2.25778 8.678339,-2.25778 3.951114,0 7.478895,1.411113 3.59833,1.340556 6.63223,3.386668 3.10444,1.975557 5.50333,4.02167 l 25.96446,-7.690561 q -0.0705,-0.423334 -0.14111,-0.846667 0,-0.423334 0,-0.846667 0,-2.398891 1.19945,-4.303892 1.19944,-1.975557 3.175,-3.104447 1.97556,-1.128889 4.30389,-1.128889 2.39889,0 4.37445,1.128889 1.97556,1.12889 3.175,3.104447 1.19945,1.905001 1.19945,4.303892 z m -4.65667,-0.07056 q 0,-1.76389 -1.27,-2.89278 -1.19945,-1.128889 -2.82223,-1.128889 -1.62278,0 -2.82222,1.128889 -1.19945,1.058334 -1.19945,2.89278 0,1.76389 1.19945,2.963335 1.19944,1.12889 2.82222,1.12889 1.62278,0 2.82223,-1.12889 1.27,-1.199445 1.27,-2.963335 z M 97.468528,102.59766 q 2.681112,0 5.291672,-0.42333 2.68111,-0.49389 4.79778,-1.12889 l 2.46945,-0.70556 q -3.45723,-2.751668 -6.8439,-4.374447 -3.316111,-1.693335 -7.126114,-1.693335 -4.021669,0 -5.785559,1.270001 -1.693335,1.270001 -1.693335,3.245558 0,1.552223 2.187224,2.681113 2.187224,1.12889 6.702782,1.12889 z M 132.74633,113.181 q 3.52778,2.68111 6.77334,4.37445 3.31611,1.62278 7.19667,1.62278 4.02167,0 5.715,-1.27 1.76389,-1.27001 1.76389,-3.24556 0,-1.62278 -2.18722,-2.68112 -2.11667,-1.12888 -6.70278,-1.12888 -2.61056,0 -5.29167,0.49388 -2.68112,0.42334 -4.79778,1.05834 z m -44.097252,11.07723 q 0,1.76389 1.199445,2.89278 1.270001,1.12889 2.89278,1.12889 1.622779,0 2.822224,-1.12889 1.199445,-1.12889 1.199445,-2.89278 0,-1.76389 -1.199445,-2.89278 -1.199445,-1.19945 -2.822224,-1.19945 -1.622779,0 -2.89278,1.19945 -1.199445,1.12889 -1.199445,2.89278 z"
       id="text6"
       style="font-size:70.5556px;stroke-width:0.264583"
       aria-label="𞡠" />
  </g>
</svg>
